<svg id="Layer_1" data-name="Layer 1" xmlns="http://www.w3.org/2000/svg" xmlns:xlink="http://www.w3.org/1999/xlink" viewBox="0 0 1080 1080">
  <defs>
    <style>
      .cls-1 {
        fill: none;
      }

      .cls-2 {
        fill: #66b9bf;
      }

      .cls-3 {
        fill: #fff;
      }

      .cls-4 {
        clip-path: url(#clip-path);
      }
    </style>
    <clipPath id="clip-path">
      <path class="cls-1" d="M579.11,950.08,870.48,163.87c2-5.45-1.06-9.87-6.87-9.87H813.76a16.24,16.24,0,0,0-14.19,9.87L508.2,950.08c-2,5.45,1.06,9.87,6.87,9.87h49.85A16.24,16.24,0,0,0,579.11,950.08Z"/>
    </clipPath>
  </defs>
  <title>Square Logo With Background2</title>
  <rect class="cls-2" x="-4" width="1085" height="1082.63"/>
  <g>
    <path class="cls-3" d="M164.48,165.31l290,782.54c2.31,6.23-1.21,11.28-7.85,11.28H399.8c-6.65,0-13.91-5.05-16.22-11.28l-290-782.54c-2.31-6.23,1.21-11.28,7.85-11.28h46.84C154.91,154,162.17,159.08,164.48,165.31Z"/>
    <path class="cls-3" d="M283.69,165.31,515.35,788.2c2.32,6.23-1.19,11.28-7.84,11.28H460.67c-6.65,0-13.91-5-16.23-11.28L212.78,165.31C210.46,159.08,214,154,220.62,154h46.84C274.11,154,281.37,159.08,283.69,165.31Z"/>
    <path class="cls-3" d="M459.74,948.67,750.07,165.28c2.31-6.23-1.21-11.28-7.85-11.28H695.38c-6.65,0-13.91,5.05-16.22,11.28L388.83,948.67C386.53,954.9,390,960,396.69,960h46.84C450.17,960,457.43,954.9,459.74,948.67Z"/>
    <path class="cls-3" d="M701.36,948.67,991.68,165.28c2.31-6.23-1.21-11.28-7.85-11.28H937c-6.65,0-13.91,5.05-16.22,11.28L630.45,948.67c-2.31,6.23,1.21,11.28,7.85,11.28h46.84C691.79,960,699,954.9,701.36,948.67Z"/>
    <g class="cls-4">
      <g>
        <path class="cls-3" d="M579.66,948.68,702,618.62c2.31-6.23-1.21-11.28-7.85-11.28H647.27c-6.65,0-13.91,5.05-16.22,11.28L508.75,948.68C506.44,954.91,510,960,516.6,960h46.84C570.09,960,577.35,954.91,579.66,948.68Z"/>
        <path class="cls-3" d="M728.58,545.84,869.7,165c2.31-6.23-1.21-11.28-7.85-11.28H815c-6.65,0-13.91,5.05-16.22,11.28L657.67,545.84c-2.31,6.23,1.21,11.28,7.85,11.28h46.84C719,557.12,726.27,552.07,728.58,545.84Z"/>
      </g>
    </g>
  </g>
</svg>
